ISO-10303-21;
HEADER;
/* Generated by software containing ST-Developer
 * from STEP Tools, Inc. (www.steptools.com) 
 */
/* OPTION: using custom renumber hook */

FILE_DESCRIPTION(
/* description */ ('STEP AP242 Edition 2',
'CAx-IF Rec.Pracs.---Representation and Presentation of Product Manufa
cturing Information (PMI)---4.0---2014-10-13',
'CAx-IF Rec.Pracs.---3D Tessellated Geometry---0.4---2014-09-14','2;1',
'CAx-IF Rec.Pracs.---User Defined Attributes---1.5---2016-08-15'),
/* implementation_level */ '2;1');

FILE_NAME(
/* name */ '696af7aeacf159abd7011c57',
/* time_stamp */ '2026-01-17T02:45:02Z',
/* author */ (''),
/* organization */ (''),
/* preprocessor_version */ 'ST-DEVELOPER v20',
/* originating_system */ 'ONSHAPE BY PTC INC, 1.209',
/* authorisation */ '  ');

FILE_SCHEMA (('AP242_MANAGED_MODEL_BASED_3D_ENGINEERING_MIM_LF { 1 0 10303 442 3 1 4 }'));
ENDSEC;

DATA;
#10=SHAPE_REPRESENTATION_RELATIONSHIP('','',#166,#11);
#11=ADVANCED_BREP_SHAPE_REPRESENTATION('',(#164),#289);
#12=CONICAL_SURFACE('',#179,0.00922748463273585,0.785398163397431);
#13=CONICAL_SURFACE('',#187,0.0039751,0.261799387799149);
#14=CONICAL_SURFACE('',#193,0.00643365351572383,1.0471975511966);
#15=TOROIDAL_SURFACE('',#177,0.0097663,0.000762);
#16=TOROIDAL_SURFACE('',#181,0.0086995,0.000762);
#17=TOROIDAL_SURFACE('',#191,0.0110766070314477,0.00928590703144767);
#18=PLANE('',#171);
#19=PLANE('',#175);
#20=PLANE('',#185);
#21=ORIENTED_EDGE('',*,*,#47,.F.);
#22=ORIENTED_EDGE('',*,*,#48,.T.);
#23=ORIENTED_EDGE('',*,*,#49,.F.);
#24=ORIENTED_EDGE('',*,*,#47,.T.);
#25=ORIENTED_EDGE('',*,*,#50,.F.);
#26=ORIENTED_EDGE('',*,*,#49,.T.);
#27=ORIENTED_EDGE('',*,*,#51,.F.);
#28=ORIENTED_EDGE('',*,*,#50,.T.);
#29=ORIENTED_EDGE('',*,*,#52,.F.);
#30=ORIENTED_EDGE('',*,*,#51,.T.);
#31=ORIENTED_EDGE('',*,*,#53,.F.);
#32=ORIENTED_EDGE('',*,*,#52,.T.);
#33=ORIENTED_EDGE('',*,*,#54,.F.);
#34=ORIENTED_EDGE('',*,*,#53,.T.);
#35=ORIENTED_EDGE('',*,*,#55,.F.);
#36=ORIENTED_EDGE('',*,*,#54,.T.);
#37=ORIENTED_EDGE('',*,*,#56,.F.);
#38=ORIENTED_EDGE('',*,*,#55,.T.);
#39=ORIENTED_EDGE('',*,*,#57,.F.);
#40=ORIENTED_EDGE('',*,*,#56,.T.);
#41=ORIENTED_EDGE('',*,*,#58,.F.);
#42=ORIENTED_EDGE('',*,*,#57,.T.);
#43=ORIENTED_EDGE('',*,*,#59,.F.);
#44=ORIENTED_EDGE('',*,*,#58,.T.);
#45=ORIENTED_EDGE('',*,*,#48,.F.);
#46=ORIENTED_EDGE('',*,*,#59,.T.);
#47=EDGE_CURVE('',#60,#60,#73,.T.);
#48=EDGE_CURVE('',#61,#61,#74,.T.);
#49=EDGE_CURVE('',#62,#62,#75,.T.);
#50=EDGE_CURVE('',#63,#63,#76,.T.);
#51=EDGE_CURVE('',#64,#64,#77,.T.);
#52=EDGE_CURVE('',#65,#65,#78,.T.);
#53=EDGE_CURVE('',#66,#66,#79,.T.);
#54=EDGE_CURVE('',#67,#67,#80,.T.);
#55=EDGE_CURVE('',#68,#68,#81,.T.);
#56=EDGE_CURVE('',#69,#69,#82,.T.);
#57=EDGE_CURVE('',#70,#70,#83,.T.);
#58=EDGE_CURVE('',#71,#71,#84,.T.);
#59=EDGE_CURVE('',#72,#72,#85,.T.);
#60=VERTEX_POINT('',#251);
#61=VERTEX_POINT('',#253);
#62=VERTEX_POINT('',#256);
#63=VERTEX_POINT('',#259);
#64=VERTEX_POINT('',#262);
#65=VERTEX_POINT('',#265);
#66=VERTEX_POINT('',#268);
#67=VERTEX_POINT('',#271);
#68=VERTEX_POINT('',#274);
#69=VERTEX_POINT('',#277);
#70=VERTEX_POINT('',#280);
#71=VERTEX_POINT('',#283);
#72=VERTEX_POINT('',#286);
#73=CIRCLE('',#169,0.0127);
#74=CIRCLE('',#170,0.0127);
#75=CIRCLE('',#172,0.0111633);
#76=CIRCLE('',#174,0.0111633);
#77=CIRCLE('',#176,0.0097663);
#78=CIRCLE('',#178,0.00922748463273585);
#79=CIRCLE('',#180,0.00816068463273587);
#80=CIRCLE('',#182,0.0079375);
#81=CIRCLE('',#184,0.0079375);
#82=CIRCLE('',#186,0.0039751);
#83=CIRCLE('',#188,0.0017907);
#84=CIRCLE('',#190,0.0017907);
#85=CIRCLE('',#192,0.00643365351572383);
#86=EDGE_LOOP('',(#21));
#87=EDGE_LOOP('',(#22));
#88=EDGE_LOOP('',(#23));
#89=EDGE_LOOP('',(#24));
#90=EDGE_LOOP('',(#25));
#91=EDGE_LOOP('',(#26));
#92=EDGE_LOOP('',(#27));
#93=EDGE_LOOP('',(#28));
#94=EDGE_LOOP('',(#29));
#95=EDGE_LOOP('',(#30));
#96=EDGE_LOOP('',(#31));
#97=EDGE_LOOP('',(#32));
#98=EDGE_LOOP('',(#33));
#99=EDGE_LOOP('',(#34));
#100=EDGE_LOOP('',(#35));
#101=EDGE_LOOP('',(#36));
#102=EDGE_LOOP('',(#37));
#103=EDGE_LOOP('',(#38));
#104=EDGE_LOOP('',(#39));
#105=EDGE_LOOP('',(#40));
#106=EDGE_LOOP('',(#41));
#107=EDGE_LOOP('',(#42));
#108=EDGE_LOOP('',(#43));
#109=EDGE_LOOP('',(#44));
#110=EDGE_LOOP('',(#45));
#111=EDGE_LOOP('',(#46));
#112=FACE_BOUND('',#86,.T.);
#113=FACE_BOUND('',#87,.T.);
#114=FACE_BOUND('',#88,.T.);
#115=FACE_BOUND('',#89,.T.);
#116=FACE_BOUND('',#90,.T.);
#117=FACE_BOUND('',#91,.T.);
#118=FACE_BOUND('',#92,.T.);
#119=FACE_BOUND('',#93,.T.);
#120=FACE_BOUND('',#94,.T.);
#121=FACE_BOUND('',#95,.T.);
#122=FACE_BOUND('',#96,.T.);
#123=FACE_BOUND('',#97,.T.);
#124=FACE_BOUND('',#98,.T.);
#125=FACE_BOUND('',#99,.T.);
#126=FACE_BOUND('',#100,.T.);
#127=FACE_BOUND('',#101,.T.);
#128=FACE_BOUND('',#102,.T.);
#129=FACE_BOUND('',#103,.T.);
#130=FACE_BOUND('',#104,.T.);
#131=FACE_BOUND('',#105,.T.);
#132=FACE_BOUND('',#106,.T.);
#133=FACE_BOUND('',#107,.T.);
#134=FACE_BOUND('',#108,.T.);
#135=FACE_BOUND('',#109,.T.);
#136=FACE_BOUND('',#110,.T.);
#137=FACE_BOUND('',#111,.T.);
#138=CYLINDRICAL_SURFACE('',#168,0.0127);
#139=CYLINDRICAL_SURFACE('',#173,0.0111633);
#140=CYLINDRICAL_SURFACE('',#183,0.0079375);
#141=CYLINDRICAL_SURFACE('',#189,0.0017907);
#142=ADVANCED_FACE('',(#112,#113),#138,.T.);
#143=ADVANCED_FACE('',(#114,#115),#18,.F.);
#144=ADVANCED_FACE('',(#116,#117),#139,.T.);
#145=ADVANCED_FACE('',(#118,#119),#19,.F.);
#146=ADVANCED_FACE('',(#120,#121),#15,.F.);
#147=ADVANCED_FACE('',(#122,#123),#12,.T.);
#148=ADVANCED_FACE('',(#124,#125),#16,.F.);
#149=ADVANCED_FACE('',(#126,#127),#140,.T.);
#150=ADVANCED_FACE('',(#128,#129),#20,.F.);
#151=ADVANCED_FACE('',(#130,#131),#13,.F.);
#152=ADVANCED_FACE('',(#132,#133),#141,.F.);
#153=ADVANCED_FACE('',(#134,#135),#17,.T.);
#154=ADVANCED_FACE('',(#136,#137),#14,.F.);
#155=CLOSED_SHELL('',(#142,#143,#144,#145,#146,#147,#148,#149,#150,#151,
#152,#153,#154));
#156=STYLED_ITEM('',(#157),#164);
#157=PRESENTATION_STYLE_ASSIGNMENT((#158));
#158=SURFACE_STYLE_USAGE(.BOTH.,#159);
#159=SURFACE_SIDE_STYLE('',(#160));
#160=SURFACE_STYLE_FILL_AREA(#161);
#161=FILL_AREA_STYLE('',(#162));
#162=FILL_AREA_STYLE_COLOUR('',#163);
#163=COLOUR_RGB('',0.301960784313725,0.301960784313725,0.301960784313725);
#164=MANIFOLD_SOLID_BREP('RCS 01450 Nozzle',#155);
#165=SHAPE_DEFINITION_REPRESENTATION(#294,#166);
#166=SHAPE_REPRESENTATION('RCS 01450 Nozzle',(#167),#289);
#167=AXIS2_PLACEMENT_3D('',#248,#194,#195);
#168=AXIS2_PLACEMENT_3D('',#249,#196,#197);
#169=AXIS2_PLACEMENT_3D('',#250,#198,#199);
#170=AXIS2_PLACEMENT_3D('',#252,#200,#201);
#171=AXIS2_PLACEMENT_3D('',#254,#202,#203);
#172=AXIS2_PLACEMENT_3D('',#255,#204,#205);
#173=AXIS2_PLACEMENT_3D('',#257,#206,#207);
#174=AXIS2_PLACEMENT_3D('',#258,#208,#209);
#175=AXIS2_PLACEMENT_3D('',#260,#210,#211);
#176=AXIS2_PLACEMENT_3D('',#261,#212,#213);
#177=AXIS2_PLACEMENT_3D('',#263,#214,#215);
#178=AXIS2_PLACEMENT_3D('',#264,#216,#217);
#179=AXIS2_PLACEMENT_3D('',#266,#218,#219);
#180=AXIS2_PLACEMENT_3D('',#267,#220,#221);
#181=AXIS2_PLACEMENT_3D('',#269,#222,#223);
#182=AXIS2_PLACEMENT_3D('',#270,#224,#225);
#183=AXIS2_PLACEMENT_3D('',#272,#226,#227);
#184=AXIS2_PLACEMENT_3D('',#273,#228,#229);
#185=AXIS2_PLACEMENT_3D('',#275,#230,#231);
#186=AXIS2_PLACEMENT_3D('',#276,#232,#233);
#187=AXIS2_PLACEMENT_3D('',#278,#234,#235);
#188=AXIS2_PLACEMENT_3D('',#279,#236,#237);
#189=AXIS2_PLACEMENT_3D('',#281,#238,#239);
#190=AXIS2_PLACEMENT_3D('',#282,#240,#241);
#191=AXIS2_PLACEMENT_3D('',#284,#242,#243);
#192=AXIS2_PLACEMENT_3D('',#285,#244,#245);
#193=AXIS2_PLACEMENT_3D('',#287,#246,#247);
#194=DIRECTION('',(0.,0.,1.));
#195=DIRECTION('',(1.,0.,0.));
#196=DIRECTION('',(0.,-1.,0.));
#197=DIRECTION('',(0.,0.,-1.));
#198=DIRECTION('',(0.,-1.,0.));
#199=DIRECTION('',(0.,0.,-1.));
#200=DIRECTION('',(0.,-1.,0.));
#201=DIRECTION('',(0.,0.,-1.));
#202=DIRECTION('',(0.,1.,0.));
#203=DIRECTION('',(0.,0.,1.));
#204=DIRECTION('',(0.,-1.,0.));
#205=DIRECTION('',(0.,0.,-1.));
#206=DIRECTION('',(0.,-1.,0.));
#207=DIRECTION('',(0.,0.,-1.));
#208=DIRECTION('',(0.,-1.,0.));
#209=DIRECTION('',(0.,0.,-1.));
#210=DIRECTION('',(0.,1.,0.));
#211=DIRECTION('',(0.,0.,1.));
#212=DIRECTION('',(0.,-1.,0.));
#213=DIRECTION('',(0.,0.,-1.));
#214=DIRECTION('',(0.,-1.,0.));
#215=DIRECTION('',(0.,0.,-1.));
#216=DIRECTION('',(0.,-1.,0.));
#217=DIRECTION('',(0.,0.,-1.));
#218=DIRECTION('',(0.,1.,0.));
#219=DIRECTION('',(0.,0.,1.));
#220=DIRECTION('',(0.,-1.,0.));
#221=DIRECTION('',(0.,0.,-1.));
#222=DIRECTION('',(0.,-1.,0.));
#223=DIRECTION('',(0.,0.,-1.));
#224=DIRECTION('',(0.,-1.,0.));
#225=DIRECTION('',(0.,0.,-1.));
#226=DIRECTION('',(0.,-1.,0.));
#227=DIRECTION('',(0.,0.,-1.));
#228=DIRECTION('',(0.,-1.,0.));
#229=DIRECTION('',(0.,0.,-1.));
#230=DIRECTION('',(0.,1.,0.));
#231=DIRECTION('',(0.,0.,1.));
#232=DIRECTION('',(0.,-1.,0.));
#233=DIRECTION('',(0.,0.,-1.));
#234=DIRECTION('',(0.,-1.,0.));
#235=DIRECTION('',(0.,0.,-1.));
#236=DIRECTION('',(0.,-1.,0.));
#237=DIRECTION('',(0.,0.,-1.));
#238=DIRECTION('',(0.,-1.,0.));
#239=DIRECTION('',(0.,0.,-1.));
#240=DIRECTION('',(0.,-1.,0.));
#241=DIRECTION('',(0.,0.,-1.));
#242=DIRECTION('',(0.,-1.,0.));
#243=DIRECTION('',(0.,0.,-1.));
#244=DIRECTION('',(0.,-1.,0.));
#245=DIRECTION('',(0.,0.,-1.));
#246=DIRECTION('',(0.,1.,0.));
#247=DIRECTION('',(0.,0.,1.));
#248=CARTESIAN_POINT('',(0.,0.,0.));
#249=CARTESIAN_POINT('',(0.,0.00165045086760074,0.));
#250=CARTESIAN_POINT('',(0.,0.016764,0.));
#251=CARTESIAN_POINT('',(0.,0.016764,-0.0127));
#252=CARTESIAN_POINT('',(0.,0.022606,0.));
#253=CARTESIAN_POINT('',(0.,0.022606,-0.0127));
#254=CARTESIAN_POINT('',(0.,0.016764,0.01193165));
#255=CARTESIAN_POINT('',(0.,0.016764,0.));
#256=CARTESIAN_POINT('',(0.,0.016764,-0.0111633));
#257=CARTESIAN_POINT('',(0.,0.00165045086760074,0.));
#258=CARTESIAN_POINT('',(0.,0.014986,0.));
#259=CARTESIAN_POINT('',(0.,0.014986,-0.0111633));
#260=CARTESIAN_POINT('',(0.,0.014986,0.0104648));
#261=CARTESIAN_POINT('',(0.,0.014986,0.));
#262=CARTESIAN_POINT('',(0.,0.014986,-0.0097663));
#263=CARTESIAN_POINT('',(0.,0.014224,0.));
#264=CARTESIAN_POINT('',(0.,0.0147628153672642,0.));
#265=CARTESIAN_POINT('',(0.,0.0147628153672642,-0.00922748463273585));
#266=CARTESIAN_POINT('',(0.,0.0147628153672642,0.));
#267=CARTESIAN_POINT('',(0.,0.0136960153672641,0.));
#268=CARTESIAN_POINT('',(0.,0.0136960153672641,-0.00816068463273587));
#269=CARTESIAN_POINT('',(0.,0.0131572,0.));
#270=CARTESIAN_POINT('',(0.,0.0131572,0.));
#271=CARTESIAN_POINT('',(0.,0.0131572,-0.0079375));
#272=CARTESIAN_POINT('',(0.,0.00165045086760074,0.));
#273=CARTESIAN_POINT('',(0.,-4.33680868994202E-19,0.));
#274=CARTESIAN_POINT('',(0.,-4.33680868994202E-19,-0.0079375));
#275=CARTESIAN_POINT('',(0.,-2.16099854169578E-19,0.0059563));
#276=CARTESIAN_POINT('',(0.,0.,0.));
#277=CARTESIAN_POINT('',(0.,0.,-0.0039751));
#278=CARTESIAN_POINT('',(0.,0.,0.));
#279=CARTESIAN_POINT('',(0.,0.00815229178405347,0.));
#280=CARTESIAN_POINT('',(0.,0.00815229178405347,-0.0017907));
#281=CARTESIAN_POINT('',(0.,0.00165045086760074,0.));
#282=CARTESIAN_POINT('',(0.,0.0109462917840535,0.));
#283=CARTESIAN_POINT('',(0.,0.0109462917840535,-0.0017907));
#284=CARTESIAN_POINT('',(0.,0.0109462917840535,0.));
#285=CARTESIAN_POINT('',(0.,0.0189881231704677,0.));
#286=CARTESIAN_POINT('',(0.,0.0189881231704677,-0.00643365351572383));
#287=CARTESIAN_POINT('',(0.,0.0189881231704677,0.));
#288=MECHANICAL_DESIGN_GEOMETRIC_PRESENTATION_REPRESENTATION('',(#156),
#289);
#289=(
GEOMETRIC_REPRESENTATION_CONTEXT(3)
GLOBAL_UNCERTAINTY_ASSIGNED_CONTEXT((#290))
GLOBAL_UNIT_ASSIGNED_CONTEXT((#293,#292,#291))
REPRESENTATION_CONTEXT('RCS 01450 Nozzle','TOP_LEVEL_ASSEMBLY_PART')
);
#290=UNCERTAINTY_MEASURE_WITH_UNIT(LENGTH_MEASURE(1.E-8),#293,
'DISTANCE_ACCURACY_VALUE','Maximum Tolerance applied to model');
#291=(
NAMED_UNIT(*)
SI_UNIT($,.STERADIAN.)
SOLID_ANGLE_UNIT()
);
#292=(
NAMED_UNIT(*)
PLANE_ANGLE_UNIT()
SI_UNIT($,.RADIAN.)
);
#293=(
LENGTH_UNIT()
NAMED_UNIT(*)
SI_UNIT($,.METRE.)
);
#294=PRODUCT_DEFINITION_SHAPE('','',#295);
#295=PRODUCT_DEFINITION('','',#297,#296);
#296=PRODUCT_DEFINITION_CONTEXT('',#303,'design');
#297=PRODUCT_DEFINITION_FORMATION_WITH_SPECIFIED_SOURCE('','',#299,
 .NOT_KNOWN.);
#298=PRODUCT_RELATED_PRODUCT_CATEGORY('','',(#299));
#299=PRODUCT('RCS 01450 Nozzle','RCS 01450 Nozzle','RCS 01450 Nozzle',(#301));
#300=PRODUCT_CATEGORY('','');
#301=PRODUCT_CONTEXT('',#303,'mechanical');
#302=APPLICATION_PROTOCOL_DEFINITION('international standard',
'ap242_managed_model_based_3d_engineering',2020,#303);
#303=APPLICATION_CONTEXT('managed model based 3d engineering');
ENDSEC;
END-ISO-10303-21;
