ISO-10303-21;
HEADER;
/* Generated by software containing ST-Developer
 * from STEP Tools, Inc. (www.steptools.com) 
 */
/* OPTION: using custom renumber hook */

FILE_DESCRIPTION(
/* description */ ('STEP AP242 Edition 2',
'CAx-IF Rec.Pracs.---Representation and Presentation of Product Manufa
cturing Information (PMI)---4.0---2014-10-13',
'CAx-IF Rec.Pracs.---3D Tessellated Geometry---0.4---2014-09-14','2;1',
'CAx-IF Rec.Pracs.---User Defined Attributes---1.5---2016-08-15'),
/* implementation_level */ '2;1');

FILE_NAME(
/* name */ '696af7c0108820bce2536851',
/* time_stamp */ '2026-01-17T02:45:20Z',
/* author */ (''),
/* organization */ (''),
/* preprocessor_version */ 'ST-DEVELOPER v20',
/* originating_system */ 'ONSHAPE BY PTC INC, 1.209',
/* authorisation */ '  ');

FILE_SCHEMA (('AP242_MANAGED_MODEL_BASED_3D_ENGINEERING_MIM_LF { 1 0 10303 442 3 1 4 }'));
ENDSEC;

DATA;
#10=SHAPE_REPRESENTATION_RELATIONSHIP('','',#122,#11);
#11=ADVANCED_BREP_SHAPE_REPRESENTATION('',(#120),#209);
#12=TOROIDAL_SURFACE('',#139,0.016256,0.002032);
#13=CONICAL_SURFACE('',#129,0.015748,0.785398163397448);
#14=CONICAL_SURFACE('',#133,0.0047625,0.26179938779915);
#15=CONICAL_SURFACE('',#141,0.0148191590206289,0.785398163397448);
#16=PLANE('',#127);
#17=PLANE('',#135);
#18=ORIENTED_EDGE('',*,*,#36,.T.);
#19=ORIENTED_EDGE('',*,*,#37,.F.);
#20=ORIENTED_EDGE('',*,*,#38,.F.);
#21=ORIENTED_EDGE('',*,*,#37,.T.);
#22=ORIENTED_EDGE('',*,*,#39,.F.);
#23=ORIENTED_EDGE('',*,*,#38,.T.);
#24=ORIENTED_EDGE('',*,*,#40,.F.);
#25=ORIENTED_EDGE('',*,*,#39,.T.);
#26=ORIENTED_EDGE('',*,*,#41,.F.);
#27=ORIENTED_EDGE('',*,*,#40,.T.);
#28=ORIENTED_EDGE('',*,*,#42,.F.);
#29=ORIENTED_EDGE('',*,*,#41,.T.);
#30=ORIENTED_EDGE('',*,*,#43,.F.);
#31=ORIENTED_EDGE('',*,*,#42,.T.);
#32=ORIENTED_EDGE('',*,*,#44,.F.);
#33=ORIENTED_EDGE('',*,*,#43,.T.);
#34=ORIENTED_EDGE('',*,*,#36,.F.);
#35=ORIENTED_EDGE('',*,*,#44,.T.);
#36=EDGE_CURVE('',#45,#45,#54,.T.);
#37=EDGE_CURVE('',#46,#46,#55,.T.);
#38=EDGE_CURVE('',#47,#47,#56,.T.);
#39=EDGE_CURVE('',#48,#48,#57,.T.);
#40=EDGE_CURVE('',#49,#49,#58,.T.);
#41=EDGE_CURVE('',#50,#50,#59,.T.);
#42=EDGE_CURVE('',#51,#51,#60,.T.);
#43=EDGE_CURVE('',#52,#52,#61,.T.);
#44=EDGE_CURVE('',#53,#53,#62,.T.);
#45=VERTEX_POINT('',#183);
#46=VERTEX_POINT('',#185);
#47=VERTEX_POINT('',#188);
#48=VERTEX_POINT('',#191);
#49=VERTEX_POINT('',#194);
#50=VERTEX_POINT('',#197);
#51=VERTEX_POINT('',#200);
#52=VERTEX_POINT('',#203);
#53=VERTEX_POINT('',#206);
#54=CIRCLE('',#125,0.017399);
#55=CIRCLE('',#126,0.017399);
#56=CIRCLE('',#128,0.015748);
#57=CIRCLE('',#130,0.0047625);
#58=CIRCLE('',#132,0.0047625);
#59=CIRCLE('',#134,0.009525);
#60=CIRCLE('',#136,0.014224);
#61=CIRCLE('',#138,0.014224);
#62=CIRCLE('',#140,0.0148191590206289);
#63=EDGE_LOOP('',(#18));
#64=EDGE_LOOP('',(#19));
#65=EDGE_LOOP('',(#20));
#66=EDGE_LOOP('',(#21));
#67=EDGE_LOOP('',(#22));
#68=EDGE_LOOP('',(#23));
#69=EDGE_LOOP('',(#24));
#70=EDGE_LOOP('',(#25));
#71=EDGE_LOOP('',(#26));
#72=EDGE_LOOP('',(#27));
#73=EDGE_LOOP('',(#28));
#74=EDGE_LOOP('',(#29));
#75=EDGE_LOOP('',(#30));
#76=EDGE_LOOP('',(#31));
#77=EDGE_LOOP('',(#32));
#78=EDGE_LOOP('',(#33));
#79=EDGE_LOOP('',(#34));
#80=EDGE_LOOP('',(#35));
#81=FACE_BOUND('',#63,.T.);
#82=FACE_BOUND('',#64,.T.);
#83=FACE_BOUND('',#65,.T.);
#84=FACE_BOUND('',#66,.T.);
#85=FACE_BOUND('',#67,.T.);
#86=FACE_BOUND('',#68,.T.);
#87=FACE_BOUND('',#69,.T.);
#88=FACE_BOUND('',#70,.T.);
#89=FACE_BOUND('',#71,.T.);
#90=FACE_BOUND('',#72,.T.);
#91=FACE_BOUND('',#73,.T.);
#92=FACE_BOUND('',#74,.T.);
#93=FACE_BOUND('',#75,.T.);
#94=FACE_BOUND('',#76,.T.);
#95=FACE_BOUND('',#77,.T.);
#96=FACE_BOUND('',#78,.T.);
#97=FACE_BOUND('',#79,.T.);
#98=FACE_BOUND('',#80,.T.);
#99=CYLINDRICAL_SURFACE('',#124,0.017399);
#100=CYLINDRICAL_SURFACE('',#131,0.0047625);
#101=CYLINDRICAL_SURFACE('',#137,0.014224);
#102=ADVANCED_FACE('',(#81,#82),#99,.T.);
#103=ADVANCED_FACE('',(#83,#84),#16,.F.);
#104=ADVANCED_FACE('',(#85,#86),#13,.F.);
#105=ADVANCED_FACE('',(#87,#88),#100,.F.);
#106=ADVANCED_FACE('',(#89,#90),#14,.F.);
#107=ADVANCED_FACE('',(#91,#92),#17,.F.);
#108=ADVANCED_FACE('',(#93,#94),#101,.T.);
#109=ADVANCED_FACE('',(#95,#96),#12,.F.);
#110=ADVANCED_FACE('',(#97,#98),#15,.T.);
#111=CLOSED_SHELL('',(#102,#103,#104,#105,#106,#107,#108,#109,#110));
#112=STYLED_ITEM('',(#113),#120);
#113=PRESENTATION_STYLE_ASSIGNMENT((#114));
#114=SURFACE_STYLE_USAGE(.BOTH.,#115);
#115=SURFACE_SIDE_STYLE('',(#116));
#116=SURFACE_STYLE_FILL_AREA(#117);
#117=FILL_AREA_STYLE('',(#118));
#118=FILL_AREA_STYLE_COLOUR('',#119);
#119=COLOUR_RGB('',0.301960784313725,0.301960784313725,0.301960784313725);
#120=MANIFOLD_SOLID_BREP('ISP28-601901',#111);
#121=SHAPE_DEFINITION_REPRESENTATION(#214,#122);
#122=SHAPE_REPRESENTATION('ISP28-601901',(#123),#209);
#123=AXIS2_PLACEMENT_3D('',#180,#142,#143);
#124=AXIS2_PLACEMENT_3D('',#181,#144,#145);
#125=AXIS2_PLACEMENT_3D('',#182,#146,#147);
#126=AXIS2_PLACEMENT_3D('',#184,#148,#149);
#127=AXIS2_PLACEMENT_3D('',#186,#150,#151);
#128=AXIS2_PLACEMENT_3D('',#187,#152,#153);
#129=AXIS2_PLACEMENT_3D('',#189,#154,#155);
#130=AXIS2_PLACEMENT_3D('',#190,#156,#157);
#131=AXIS2_PLACEMENT_3D('',#192,#158,#159);
#132=AXIS2_PLACEMENT_3D('',#193,#160,#161);
#133=AXIS2_PLACEMENT_3D('',#195,#162,#163);
#134=AXIS2_PLACEMENT_3D('',#196,#164,#165);
#135=AXIS2_PLACEMENT_3D('',#198,#166,#167);
#136=AXIS2_PLACEMENT_3D('',#199,#168,#169);
#137=AXIS2_PLACEMENT_3D('',#201,#170,#171);
#138=AXIS2_PLACEMENT_3D('',#202,#172,#173);
#139=AXIS2_PLACEMENT_3D('',#204,#174,#175);
#140=AXIS2_PLACEMENT_3D('',#205,#176,#177);
#141=AXIS2_PLACEMENT_3D('',#207,#178,#179);
#142=DIRECTION('',(0.,0.,1.));
#143=DIRECTION('',(1.,0.,0.));
#144=DIRECTION('',(0.,-1.,0.));
#145=DIRECTION('',(0.,0.,-1.));
#146=DIRECTION('',(0.,-1.,0.));
#147=DIRECTION('',(0.,0.,-1.));
#148=DIRECTION('',(0.,-1.,0.));
#149=DIRECTION('',(0.,0.,-1.));
#150=DIRECTION('',(0.,1.,0.));
#151=DIRECTION('',(0.,0.,1.));
#152=DIRECTION('',(0.,-1.,0.));
#153=DIRECTION('',(0.,0.,-1.));
#154=DIRECTION('',(0.,-1.,0.));
#155=DIRECTION('',(0.,0.,-1.));
#156=DIRECTION('',(0.,-1.,0.));
#157=DIRECTION('',(0.,0.,-1.));
#158=DIRECTION('',(0.,-1.,0.));
#159=DIRECTION('',(0.,0.,-1.));
#160=DIRECTION('',(0.,-1.,0.));
#161=DIRECTION('',(0.,0.,-1.));
#162=DIRECTION('',(0.,1.,0.));
#163=DIRECTION('',(0.,0.,1.));
#164=DIRECTION('',(0.,-1.,0.));
#165=DIRECTION('',(0.,0.,-1.));
#166=DIRECTION('',(0.,-1.,0.));
#167=DIRECTION('',(0.,0.,-1.));
#168=DIRECTION('',(0.,-1.,0.));
#169=DIRECTION('',(0.,0.,-1.));
#170=DIRECTION('',(0.,-1.,0.));
#171=DIRECTION('',(0.,0.,-1.));
#172=DIRECTION('',(0.,-1.,0.));
#173=DIRECTION('',(0.,0.,-1.));
#174=DIRECTION('',(0.,-1.,0.));
#175=DIRECTION('',(0.,0.,-1.));
#176=DIRECTION('',(0.,-1.,0.));
#177=DIRECTION('',(0.,0.,-1.));
#178=DIRECTION('',(0.,-1.,0.));
#179=DIRECTION('',(0.,0.,-1.));
#180=CARTESIAN_POINT('',(0.,0.,0.));
#181=CARTESIAN_POINT('',(0.,0.00527903763577342,0.));
#182=CARTESIAN_POINT('',(0.,0.0079248000000002,0.));
#183=CARTESIAN_POINT('',(0.,0.0079248000000002,-0.017399));
#184=CARTESIAN_POINT('',(0.,1.7347234759768E-18,0.));
#185=CARTESIAN_POINT('',(0.,1.7347234759768E-18,-0.017399));
#186=CARTESIAN_POINT('',(0.,1.3010426069826E-18,0.0165735));
#187=CARTESIAN_POINT('',(0.,8.67361737988404E-19,0.));
#188=CARTESIAN_POINT('',(0.,8.67361737988404E-19,-0.015748));
#189=CARTESIAN_POINT('',(0.,8.67361737988404E-19,0.));
#190=CARTESIAN_POINT('',(0.,0.0109855,0.));
#191=CARTESIAN_POINT('',(0.,0.0109855,-0.0047625));
#192=CARTESIAN_POINT('',(0.,0.00527903763577342,0.));
#193=CARTESIAN_POINT('',(0.,0.0157541080289532,0.));
#194=CARTESIAN_POINT('',(0.,0.0157541080289532,-0.0047625));
#195=CARTESIAN_POINT('',(0.,0.0157541080289532,0.));
#196=CARTESIAN_POINT('',(0.,0.033528,0.));
#197=CARTESIAN_POINT('',(0.,0.033528,-0.009525));
#198=CARTESIAN_POINT('',(0.,0.033528,0.0118745));
#199=CARTESIAN_POINT('',(0.,0.033528,0.));
#200=CARTESIAN_POINT('',(0.,0.033528,-0.014224));
#201=CARTESIAN_POINT('',(0.,0.00527903763577342,0.));
#202=CARTESIAN_POINT('',(0.,0.0119414819587423,0.));
#203=CARTESIAN_POINT('',(0.,0.0119414819587423,-0.014224));
#204=CARTESIAN_POINT('',(0.,0.0119414819587423,0.));
#205=CARTESIAN_POINT('',(0.,0.0105046409793713,0.));
#206=CARTESIAN_POINT('',(0.,0.0105046409793713,-0.0148191590206289));
#207=CARTESIAN_POINT('',(0.,0.0105046409793713,0.));
#208=MECHANICAL_DESIGN_GEOMETRIC_PRESENTATION_REPRESENTATION('',(#112),
#209);
#209=(
GEOMETRIC_REPRESENTATION_CONTEXT(3)
GLOBAL_UNCERTAINTY_ASSIGNED_CONTEXT((#210))
GLOBAL_UNIT_ASSIGNED_CONTEXT((#213,#212,#211))
REPRESENTATION_CONTEXT('ISP28-601901','TOP_LEVEL_ASSEMBLY_PART')
);
#210=UNCERTAINTY_MEASURE_WITH_UNIT(LENGTH_MEASURE(1.E-8),#213,
'DISTANCE_ACCURACY_VALUE','Maximum Tolerance applied to model');
#211=(
NAMED_UNIT(*)
SI_UNIT($,.STERADIAN.)
SOLID_ANGLE_UNIT()
);
#212=(
NAMED_UNIT(*)
PLANE_ANGLE_UNIT()
SI_UNIT($,.RADIAN.)
);
#213=(
LENGTH_UNIT()
NAMED_UNIT(*)
SI_UNIT($,.METRE.)
);
#214=PRODUCT_DEFINITION_SHAPE('','',#215);
#215=PRODUCT_DEFINITION('','',#217,#216);
#216=PRODUCT_DEFINITION_CONTEXT('',#223,'design');
#217=PRODUCT_DEFINITION_FORMATION_WITH_SPECIFIED_SOURCE('','',#219,
 .NOT_KNOWN.);
#218=PRODUCT_RELATED_PRODUCT_CATEGORY('','',(#219));
#219=PRODUCT('ISP28-601901','ISP28-601901','ISP28-601901',(#221));
#220=PRODUCT_CATEGORY('','');
#221=PRODUCT_CONTEXT('',#223,'mechanical');
#222=APPLICATION_PROTOCOL_DEFINITION('international standard',
'ap242_managed_model_based_3d_engineering',2020,#223);
#223=APPLICATION_CONTEXT('managed model based 3d engineering');
ENDSEC;
END-ISO-10303-21;
