ISO-10303-21;
HEADER;
/* Generated by software containing ST-Developer
 * from STEP Tools, Inc. (www.steptools.com) 
 */
/* OPTION: using custom renumber hook */

FILE_DESCRIPTION(
/* description */ ('STEP AP242 Edition 2',
'CAx-IF Rec.Pracs.---Representation and Presentation of Product Manufa
cturing Information (PMI)---4.0---2014-10-13',
'CAx-IF Rec.Pracs.---3D Tessellated Geometry---0.4---2014-09-14','2;1',
'CAx-IF Rec.Pracs.---User Defined Attributes---1.5---2016-08-15'),
/* implementation_level */ '2;1');

FILE_NAME(
/* name */ '696ae8ea45086023772cdf82',
/* time_stamp */ '2026-01-17T01:42:02Z',
/* author */ (''),
/* organization */ (''),
/* preprocessor_version */ 'ST-DEVELOPER v20',
/* originating_system */ 'ONSHAPE BY PTC INC, 1.209',
/* authorisation */ '  ');

FILE_SCHEMA (('AP242_MANAGED_MODEL_BASED_3D_ENGINEERING_MIM_LF { 1 0 10303 442 3 1 4 }'));
ENDSEC;

DATA;
#10=SHAPE_REPRESENTATION_RELATIONSHIP('','',#232,#11);
#11=ADVANCED_BREP_SHAPE_REPRESENTATION('',(#230),#409);
#12=TOROIDAL_SURFACE('',#267,0.0168750360608101,0.00100003606081009);
#13=CYLINDRICAL_SURFACE('',#239,0.0039751);
#14=CYLINDRICAL_SURFACE('',#247,0.0237744);
#15=CYLINDRICAL_SURFACE('',#251,0.0252095);
#16=CYLINDRICAL_SURFACE('',#255,0.0222123);
#17=CYLINDRICAL_SURFACE('',#261,0.01905);
#18=CYLINDRICAL_SURFACE('',#269,0.015875);
#19=CONICAL_SURFACE('',#237,0.0039751,0.26179938779915);
#20=CONICAL_SURFACE('',#241,0.0230124,0.785162512800965);
#21=CONICAL_SURFACE('',#245,0.0237744,0.785398163397435);
#22=CONICAL_SURFACE('',#259,0.01905,0.785398163397448);
#23=CONICAL_SURFACE('',#263,0.0185838565230369,0.785398163397441);
#24=CONICAL_SURFACE('',#271,0.0153361846327358,0.785398163397448);
#25=ORIENTED_EDGE('',*,*,#63,.F.);
#26=ORIENTED_EDGE('',*,*,#64,.T.);
#27=ORIENTED_EDGE('',*,*,#64,.F.);
#28=ORIENTED_EDGE('',*,*,#65,.T.);
#29=ORIENTED_EDGE('',*,*,#65,.F.);
#30=ORIENTED_EDGE('',*,*,#66,.T.);
#31=ORIENTED_EDGE('',*,*,#66,.F.);
#32=ORIENTED_EDGE('',*,*,#67,.T.);
#33=ORIENTED_EDGE('',*,*,#67,.F.);
#34=ORIENTED_EDGE('',*,*,#68,.T.);
#35=ORIENTED_EDGE('',*,*,#68,.F.);
#36=ORIENTED_EDGE('',*,*,#69,.T.);
#37=ORIENTED_EDGE('',*,*,#69,.F.);
#38=ORIENTED_EDGE('',*,*,#70,.T.);
#39=ORIENTED_EDGE('',*,*,#70,.F.);
#40=ORIENTED_EDGE('',*,*,#71,.T.);
#41=ORIENTED_EDGE('',*,*,#71,.F.);
#42=ORIENTED_EDGE('',*,*,#72,.T.);
#43=ORIENTED_EDGE('',*,*,#72,.F.);
#44=ORIENTED_EDGE('',*,*,#73,.T.);
#45=ORIENTED_EDGE('',*,*,#73,.F.);
#46=ORIENTED_EDGE('',*,*,#74,.T.);
#47=ORIENTED_EDGE('',*,*,#74,.F.);
#48=ORIENTED_EDGE('',*,*,#75,.T.);
#49=ORIENTED_EDGE('',*,*,#75,.F.);
#50=ORIENTED_EDGE('',*,*,#76,.T.);
#51=ORIENTED_EDGE('',*,*,#76,.F.);
#52=ORIENTED_EDGE('',*,*,#77,.T.);
#53=ORIENTED_EDGE('',*,*,#77,.F.);
#54=ORIENTED_EDGE('',*,*,#78,.T.);
#55=ORIENTED_EDGE('',*,*,#78,.F.);
#56=ORIENTED_EDGE('',*,*,#79,.T.);
#57=ORIENTED_EDGE('',*,*,#79,.F.);
#58=ORIENTED_EDGE('',*,*,#80,.T.);
#59=ORIENTED_EDGE('',*,*,#80,.F.);
#60=ORIENTED_EDGE('',*,*,#81,.T.);
#61=ORIENTED_EDGE('',*,*,#81,.F.);
#62=ORIENTED_EDGE('',*,*,#63,.T.);
#63=EDGE_CURVE('',#82,#82,#101,.T.);
#64=EDGE_CURVE('',#83,#83,#102,.T.);
#65=EDGE_CURVE('',#84,#84,#103,.T.);
#66=EDGE_CURVE('',#85,#85,#104,.T.);
#67=EDGE_CURVE('',#86,#86,#105,.T.);
#68=EDGE_CURVE('',#87,#87,#106,.T.);
#69=EDGE_CURVE('',#88,#88,#107,.T.);
#70=EDGE_CURVE('',#89,#89,#108,.T.);
#71=EDGE_CURVE('',#90,#90,#109,.T.);
#72=EDGE_CURVE('',#91,#91,#110,.T.);
#73=EDGE_CURVE('',#92,#92,#111,.T.);
#74=EDGE_CURVE('',#93,#93,#112,.T.);
#75=EDGE_CURVE('',#94,#94,#113,.T.);
#76=EDGE_CURVE('',#95,#95,#114,.T.);
#77=EDGE_CURVE('',#96,#96,#115,.T.);
#78=EDGE_CURVE('',#97,#97,#116,.T.);
#79=EDGE_CURVE('',#98,#98,#117,.T.);
#80=EDGE_CURVE('',#99,#99,#118,.T.);
#81=EDGE_CURVE('',#100,#100,#119,.T.);
#82=VERTEX_POINT('',#353);
#83=VERTEX_POINT('',#355);
#84=VERTEX_POINT('',#358);
#85=VERTEX_POINT('',#361);
#86=VERTEX_POINT('',#364);
#87=VERTEX_POINT('',#367);
#88=VERTEX_POINT('',#370);
#89=VERTEX_POINT('',#373);
#90=VERTEX_POINT('',#376);
#91=VERTEX_POINT('',#379);
#92=VERTEX_POINT('',#382);
#93=VERTEX_POINT('',#385);
#94=VERTEX_POINT('',#388);
#95=VERTEX_POINT('',#391);
#96=VERTEX_POINT('',#394);
#97=VERTEX_POINT('',#397);
#98=VERTEX_POINT('',#400);
#99=VERTEX_POINT('',#403);
#100=VERTEX_POINT('',#406);
#101=CIRCLE('',#235,0.0153361846327358);
#102=CIRCLE('',#236,0.0103124);
#103=CIRCLE('',#238,0.0039751);
#104=CIRCLE('',#240,0.0039751);
#105=CIRCLE('',#242,0.0230124);
#106=CIRCLE('',#244,0.0235049923163679);
#107=CIRCLE('',#246,0.0237744);
#108=CIRCLE('',#248,0.0237744);
#109=CIRCLE('',#250,0.0252095);
#110=CIRCLE('',#252,0.0252095);
#111=CIRCLE('',#254,0.0222123);
#112=CIRCLE('',#256,0.0222123);
#113=CIRCLE('',#258,0.020447);
#114=CIRCLE('',#260,0.01905);
#115=CIRCLE('',#262,0.01905);
#116=CIRCLE('',#264,0.0185838565230369);
#117=CIRCLE('',#266,0.0168750360608101);
#118=CIRCLE('',#268,0.015875);
#119=CIRCLE('',#270,0.015875);
#120=EDGE_LOOP('',(#25));
#121=EDGE_LOOP('',(#26));
#122=EDGE_LOOP('',(#27));
#123=EDGE_LOOP('',(#28));
#124=EDGE_LOOP('',(#29));
#125=EDGE_LOOP('',(#30));
#126=EDGE_LOOP('',(#31));
#127=EDGE_LOOP('',(#32));
#128=EDGE_LOOP('',(#33));
#129=EDGE_LOOP('',(#34));
#130=EDGE_LOOP('',(#35));
#131=EDGE_LOOP('',(#36));
#132=EDGE_LOOP('',(#37));
#133=EDGE_LOOP('',(#38));
#134=EDGE_LOOP('',(#39));
#135=EDGE_LOOP('',(#40));
#136=EDGE_LOOP('',(#41));
#137=EDGE_LOOP('',(#42));
#138=EDGE_LOOP('',(#43));
#139=EDGE_LOOP('',(#44));
#140=EDGE_LOOP('',(#45));
#141=EDGE_LOOP('',(#46));
#142=EDGE_LOOP('',(#47));
#143=EDGE_LOOP('',(#48));
#144=EDGE_LOOP('',(#49));
#145=EDGE_LOOP('',(#50));
#146=EDGE_LOOP('',(#51));
#147=EDGE_LOOP('',(#52));
#148=EDGE_LOOP('',(#53));
#149=EDGE_LOOP('',(#54));
#150=EDGE_LOOP('',(#55));
#151=EDGE_LOOP('',(#56));
#152=EDGE_LOOP('',(#57));
#153=EDGE_LOOP('',(#58));
#154=EDGE_LOOP('',(#59));
#155=EDGE_LOOP('',(#60));
#156=EDGE_LOOP('',(#61));
#157=EDGE_LOOP('',(#62));
#158=FACE_BOUND('',#120,.T.);
#159=FACE_BOUND('',#121,.T.);
#160=FACE_BOUND('',#122,.T.);
#161=FACE_BOUND('',#123,.T.);
#162=FACE_BOUND('',#124,.T.);
#163=FACE_BOUND('',#125,.T.);
#164=FACE_BOUND('',#126,.T.);
#165=FACE_BOUND('',#127,.T.);
#166=FACE_BOUND('',#128,.T.);
#167=FACE_BOUND('',#129,.T.);
#168=FACE_BOUND('',#130,.T.);
#169=FACE_BOUND('',#131,.T.);
#170=FACE_BOUND('',#132,.T.);
#171=FACE_BOUND('',#133,.T.);
#172=FACE_BOUND('',#134,.T.);
#173=FACE_BOUND('',#135,.T.);
#174=FACE_BOUND('',#136,.T.);
#175=FACE_BOUND('',#137,.T.);
#176=FACE_BOUND('',#138,.T.);
#177=FACE_BOUND('',#139,.T.);
#178=FACE_BOUND('',#140,.T.);
#179=FACE_BOUND('',#141,.T.);
#180=FACE_BOUND('',#142,.T.);
#181=FACE_BOUND('',#143,.T.);
#182=FACE_BOUND('',#144,.T.);
#183=FACE_BOUND('',#145,.T.);
#184=FACE_BOUND('',#146,.T.);
#185=FACE_BOUND('',#147,.T.);
#186=FACE_BOUND('',#148,.T.);
#187=FACE_BOUND('',#149,.T.);
#188=FACE_BOUND('',#150,.T.);
#189=FACE_BOUND('',#151,.T.);
#190=FACE_BOUND('',#152,.T.);
#191=FACE_BOUND('',#153,.T.);
#192=FACE_BOUND('',#154,.T.);
#193=FACE_BOUND('',#155,.T.);
#194=FACE_BOUND('',#156,.T.);
#195=FACE_BOUND('',#157,.T.);
#196=PLANE('',#234);
#197=PLANE('',#243);
#198=PLANE('',#249);
#199=PLANE('',#253);
#200=PLANE('',#257);
#201=PLANE('',#265);
#202=ADVANCED_FACE('',(#158,#159),#196,.F.);
#203=ADVANCED_FACE('',(#160,#161),#19,.F.);
#204=ADVANCED_FACE('',(#162,#163),#13,.F.);
#205=ADVANCED_FACE('',(#164,#165),#20,.F.);
#206=ADVANCED_FACE('',(#166,#167),#197,.F.);
#207=ADVANCED_FACE('',(#168,#169),#21,.T.);
#208=ADVANCED_FACE('',(#170,#171),#14,.T.);
#209=ADVANCED_FACE('',(#172,#173),#198,.F.);
#210=ADVANCED_FACE('',(#174,#175),#15,.T.);
#211=ADVANCED_FACE('',(#176,#177),#199,.F.);
#212=ADVANCED_FACE('',(#178,#179),#16,.T.);
#213=ADVANCED_FACE('',(#180,#181),#200,.F.);
#214=ADVANCED_FACE('',(#182,#183),#22,.T.);
#215=ADVANCED_FACE('',(#184,#185),#17,.T.);
#216=ADVANCED_FACE('',(#186,#187),#23,.T.);
#217=ADVANCED_FACE('',(#188,#189),#201,.F.);
#218=ADVANCED_FACE('',(#190,#191),#12,.F.);
#219=ADVANCED_FACE('',(#192,#193),#18,.T.);
#220=ADVANCED_FACE('',(#194,#195),#24,.T.);
#221=CLOSED_SHELL('',(#202,#203,#204,#205,#206,#207,#208,#209,#210,#211,
#212,#213,#214,#215,#216,#217,#218,#219,#220));
#222=STYLED_ITEM('',(#223),#230);
#223=PRESENTATION_STYLE_ASSIGNMENT((#224));
#224=SURFACE_STYLE_USAGE(.BOTH.,#225);
#225=SURFACE_SIDE_STYLE('',(#226));
#226=SURFACE_STYLE_FILL_AREA(#227);
#227=FILL_AREA_STYLE('',(#228));
#228=FILL_AREA_STYLE_COLOUR('',#229);
#229=COLOUR_RGB('',0.301960784313725,0.301960784313725,0.301960784313725);
#230=MANIFOLD_SOLID_BREP('01650',#221);
#231=SHAPE_DEFINITION_REPRESENTATION(#414,#232);
#232=SHAPE_REPRESENTATION('01650',(#233),#409);
#233=AXIS2_PLACEMENT_3D('',#350,#272,#273);
#234=AXIS2_PLACEMENT_3D('',#351,#274,#275);
#235=AXIS2_PLACEMENT_3D('',#352,#276,#277);
#236=AXIS2_PLACEMENT_3D('',#354,#278,#279);
#237=AXIS2_PLACEMENT_3D('',#356,#280,#281);
#238=AXIS2_PLACEMENT_3D('',#357,#282,#283);
#239=AXIS2_PLACEMENT_3D('',#359,#284,#285);
#240=AXIS2_PLACEMENT_3D('',#360,#286,#287);
#241=AXIS2_PLACEMENT_3D('',#362,#288,#289);
#242=AXIS2_PLACEMENT_3D('',#363,#290,#291);
#243=AXIS2_PLACEMENT_3D('',#365,#292,#293);
#244=AXIS2_PLACEMENT_3D('',#366,#294,#295);
#245=AXIS2_PLACEMENT_3D('',#368,#296,#297);
#246=AXIS2_PLACEMENT_3D('',#369,#298,#299);
#247=AXIS2_PLACEMENT_3D('',#371,#300,#301);
#248=AXIS2_PLACEMENT_3D('',#372,#302,#303);
#249=AXIS2_PLACEMENT_3D('',#374,#304,#305);
#250=AXIS2_PLACEMENT_3D('',#375,#306,#307);
#251=AXIS2_PLACEMENT_3D('',#377,#308,#309);
#252=AXIS2_PLACEMENT_3D('',#378,#310,#311);
#253=AXIS2_PLACEMENT_3D('',#380,#312,#313);
#254=AXIS2_PLACEMENT_3D('',#381,#314,#315);
#255=AXIS2_PLACEMENT_3D('',#383,#316,#317);
#256=AXIS2_PLACEMENT_3D('',#384,#318,#319);
#257=AXIS2_PLACEMENT_3D('',#386,#320,#321);
#258=AXIS2_PLACEMENT_3D('',#387,#322,#323);
#259=AXIS2_PLACEMENT_3D('',#389,#324,#325);
#260=AXIS2_PLACEMENT_3D('',#390,#326,#327);
#261=AXIS2_PLACEMENT_3D('',#392,#328,#329);
#262=AXIS2_PLACEMENT_3D('',#393,#330,#331);
#263=AXIS2_PLACEMENT_3D('',#395,#332,#333);
#264=AXIS2_PLACEMENT_3D('',#396,#334,#335);
#265=AXIS2_PLACEMENT_3D('',#398,#336,#337);
#266=AXIS2_PLACEMENT_3D('',#399,#338,#339);
#267=AXIS2_PLACEMENT_3D('',#401,#340,#341);
#268=AXIS2_PLACEMENT_3D('',#402,#342,#343);
#269=AXIS2_PLACEMENT_3D('',#404,#344,#345);
#270=AXIS2_PLACEMENT_3D('',#405,#346,#347);
#271=AXIS2_PLACEMENT_3D('',#407,#348,#349);
#272=DIRECTION('',(0.,0.,1.));
#273=DIRECTION('',(1.,0.,0.));
#274=DIRECTION('',(0.,1.,0.));
#275=DIRECTION('',(0.,0.,1.));
#276=DIRECTION('',(0.,1.,0.));
#277=DIRECTION('',(0.,0.,1.));
#278=DIRECTION('',(0.,1.,0.));
#279=DIRECTION('',(0.,0.,1.));
#280=DIRECTION('',(0.,-1.,0.));
#281=DIRECTION('',(0.,0.,-1.));
#282=DIRECTION('',(0.,1.,0.));
#283=DIRECTION('',(0.,0.,1.));
#284=DIRECTION('',(0.,1.,0.));
#285=DIRECTION('',(0.,0.,1.));
#286=DIRECTION('',(0.,1.,0.));
#287=DIRECTION('',(0.,0.,1.));
#288=DIRECTION('',(0.,1.,0.));
#289=DIRECTION('',(0.,0.,1.));
#290=DIRECTION('',(0.,1.,0.));
#291=DIRECTION('',(0.,0.,1.));
#292=DIRECTION('',(0.,-1.,0.));
#293=DIRECTION('',(0.,0.,-1.));
#294=DIRECTION('',(0.,1.,0.));
#295=DIRECTION('',(0.,0.,1.));
#296=DIRECTION('',(0.,-1.,0.));
#297=DIRECTION('',(0.,0.,-1.));
#298=DIRECTION('',(0.,1.,0.));
#299=DIRECTION('',(0.,0.,1.));
#300=DIRECTION('',(0.,1.,0.));
#301=DIRECTION('',(0.,0.,1.));
#302=DIRECTION('',(0.,1.,0.));
#303=DIRECTION('',(0.,0.,1.));
#304=DIRECTION('',(0.,-1.,0.));
#305=DIRECTION('',(0.,0.,-1.));
#306=DIRECTION('',(0.,1.,0.));
#307=DIRECTION('',(0.,0.,1.));
#308=DIRECTION('',(0.,1.,0.));
#309=DIRECTION('',(0.,0.,1.));
#310=DIRECTION('',(0.,1.,0.));
#311=DIRECTION('',(0.,0.,1.));
#312=DIRECTION('',(0.,1.,0.));
#313=DIRECTION('',(0.,0.,1.));
#314=DIRECTION('',(0.,1.,0.));
#315=DIRECTION('',(0.,0.,1.));
#316=DIRECTION('',(0.,1.,0.));
#317=DIRECTION('',(0.,0.,1.));
#318=DIRECTION('',(0.,1.,0.));
#319=DIRECTION('',(0.,0.,1.));
#320=DIRECTION('',(0.,1.,0.));
#321=DIRECTION('',(0.,0.,1.));
#322=DIRECTION('',(0.,1.,0.));
#323=DIRECTION('',(0.,0.,1.));
#324=DIRECTION('',(0.,1.,0.));
#325=DIRECTION('',(0.,0.,1.));
#326=DIRECTION('',(0.,1.,0.));
#327=DIRECTION('',(0.,0.,1.));
#328=DIRECTION('',(0.,1.,0.));
#329=DIRECTION('',(0.,0.,1.));
#330=DIRECTION('',(0.,1.,0.));
#331=DIRECTION('',(0.,0.,1.));
#332=DIRECTION('',(0.,1.,0.));
#333=DIRECTION('',(0.,0.,1.));
#334=DIRECTION('',(0.,1.,0.));
#335=DIRECTION('',(0.,0.,1.));
#336=DIRECTION('',(0.,1.,0.));
#337=DIRECTION('',(0.,0.,1.));
#338=DIRECTION('',(0.,1.,0.));
#339=DIRECTION('',(0.,0.,1.));
#340=DIRECTION('',(0.,1.,0.));
#341=DIRECTION('',(0.,0.,1.));
#342=DIRECTION('',(0.,1.,0.));
#343=DIRECTION('',(0.,0.,1.));
#344=DIRECTION('',(0.,1.,0.));
#345=DIRECTION('',(0.,0.,1.));
#346=DIRECTION('',(0.,1.,0.));
#347=DIRECTION('',(0.,0.,1.));
#348=DIRECTION('',(0.,1.,0.));
#349=DIRECTION('',(0.,0.,1.));
#350=CARTESIAN_POINT('',(0.,0.,0.));
#351=CARTESIAN_POINT('',(0.,-8.67361737988404E-19,0.0128242923163679));
#352=CARTESIAN_POINT('',(0.,0.,0.));
#353=CARTESIAN_POINT('',(0.,0.,0.0153361846327358));
#354=CARTESIAN_POINT('',(0.,-1.7347234759768E-18,0.));
#355=CARTESIAN_POINT('',(0.,-1.7347234759768E-18,0.0103124));
#356=CARTESIAN_POINT('',(0.,0.0236511255828062,0.));
#357=CARTESIAN_POINT('',(0.,0.0236511255828062,0.));
#358=CARTESIAN_POINT('',(0.,0.0236511255828062,0.0039751));
#359=CARTESIAN_POINT('',(0.,-0.0057948991085976,0.));
#360=CARTESIAN_POINT('',(0.,0.0252513255828063,0.));
#361=CARTESIAN_POINT('',(0.,0.0252513255828063,0.0039751));
#362=CARTESIAN_POINT('',(0.,0.0442976,0.));
#363=CARTESIAN_POINT('',(0.,0.0442976,0.));
#364=CARTESIAN_POINT('',(0.,0.0442976,0.0230124));
#365=CARTESIAN_POINT('',(0.,0.0442976,0.023258696158184));
#366=CARTESIAN_POINT('',(0.,0.0442976,0.));
#367=CARTESIAN_POINT('',(0.,0.0442976,0.0235049923163679));
#368=CARTESIAN_POINT('',(0.,0.0440281923163679,0.));
#369=CARTESIAN_POINT('',(0.,0.0440281923163679,0.));
#370=CARTESIAN_POINT('',(0.,0.0440281923163679,0.0237744));
#371=CARTESIAN_POINT('',(0.,-0.0057948991085976,0.));
#372=CARTESIAN_POINT('',(0.,0.0373634,0.));
#373=CARTESIAN_POINT('',(0.,0.0373634,0.0237744));
#374=CARTESIAN_POINT('',(0.,0.0373634,0.02449195));
#375=CARTESIAN_POINT('',(0.,0.0373634,0.));
#376=CARTESIAN_POINT('',(0.,0.0373634,0.0252095));
#377=CARTESIAN_POINT('',(0.,-0.0057948991085976,0.));
#378=CARTESIAN_POINT('',(0.,0.0341884,0.));
#379=CARTESIAN_POINT('',(0.,0.0341884,0.0252095));
#380=CARTESIAN_POINT('',(0.,0.0341884,0.0237109));
#381=CARTESIAN_POINT('',(0.,0.0341884,0.));
#382=CARTESIAN_POINT('',(0.,0.0341884,0.0222123));
#383=CARTESIAN_POINT('',(0.,-0.0057948991085976,0.));
#384=CARTESIAN_POINT('',(0.,0.0324104,0.));
#385=CARTESIAN_POINT('',(0.,0.0324104,0.0222123));
#386=CARTESIAN_POINT('',(0.,0.0324104,0.02132965));
#387=CARTESIAN_POINT('',(0.,0.0324104,0.));
#388=CARTESIAN_POINT('',(0.,0.0324104,0.020447));
#389=CARTESIAN_POINT('',(0.,0.0310134,0.));
#390=CARTESIAN_POINT('',(0.,0.0310134,0.));
#391=CARTESIAN_POINT('',(0.,0.0310134,0.01905));
#392=CARTESIAN_POINT('',(0.,-0.0057948991085976,0.));
#393=CARTESIAN_POINT('',(0.,0.0276695434769631,0.));
#394=CARTESIAN_POINT('',(0.,0.0276695434769631,0.01905));
#395=CARTESIAN_POINT('',(0.,0.0272034,0.));
#396=CARTESIAN_POINT('',(0.,0.0272034,0.));
#397=CARTESIAN_POINT('',(0.,0.0272034,0.0185838565230369));
#398=CARTESIAN_POINT('',(0.,0.0272034,0.0177294462919235));
#399=CARTESIAN_POINT('',(0.,0.0272034,0.));
#400=CARTESIAN_POINT('',(0.,0.0272034,0.0168750360608101));
#401=CARTESIAN_POINT('',(0.,0.0262033639391899,0.));
#402=CARTESIAN_POINT('',(0.,0.0262033639391899,0.));
#403=CARTESIAN_POINT('',(0.,0.0262033639391899,0.015875));
#404=CARTESIAN_POINT('',(0.,-0.0057948991085976,0.));
#405=CARTESIAN_POINT('',(0.,0.000538815367264148,0.));
#406=CARTESIAN_POINT('',(0.,0.000538815367264148,0.015875));
#407=CARTESIAN_POINT('',(0.,0.,0.));
#408=MECHANICAL_DESIGN_GEOMETRIC_PRESENTATION_REPRESENTATION('',(#222),
#409);
#409=(
GEOMETRIC_REPRESENTATION_CONTEXT(3)
GLOBAL_UNCERTAINTY_ASSIGNED_CONTEXT((#410))
GLOBAL_UNIT_ASSIGNED_CONTEXT((#413,#412,#411))
REPRESENTATION_CONTEXT('01650','TOP_LEVEL_ASSEMBLY_PART')
);
#410=UNCERTAINTY_MEASURE_WITH_UNIT(LENGTH_MEASURE(1.E-8),#413,
'DISTANCE_ACCURACY_VALUE','Maximum Tolerance applied to model');
#411=(
NAMED_UNIT(*)
SI_UNIT($,.STERADIAN.)
SOLID_ANGLE_UNIT()
);
#412=(
NAMED_UNIT(*)
PLANE_ANGLE_UNIT()
SI_UNIT($,.RADIAN.)
);
#413=(
LENGTH_UNIT()
NAMED_UNIT(*)
SI_UNIT($,.METRE.)
);
#414=PRODUCT_DEFINITION_SHAPE('','',#415);
#415=PRODUCT_DEFINITION('','',#417,#416);
#416=PRODUCT_DEFINITION_CONTEXT('',#423,'design');
#417=PRODUCT_DEFINITION_FORMATION_WITH_SPECIFIED_SOURCE('','',#419,
 .NOT_KNOWN.);
#418=PRODUCT_RELATED_PRODUCT_CATEGORY('','',(#419));
#419=PRODUCT('01650','01650','01650',(#421));
#420=PRODUCT_CATEGORY('','');
#421=PRODUCT_CONTEXT('',#423,'mechanical');
#422=APPLICATION_PROTOCOL_DEFINITION('international standard',
'ap242_managed_model_based_3d_engineering',2020,#423);
#423=APPLICATION_CONTEXT('managed model based 3d engineering');
ENDSEC;
END-ISO-10303-21;
