ISO-10303-21;
HEADER;
/* Generated by software containing ST-Developer
 * from STEP Tools, Inc. (www.steptools.com) 
 */
/* OPTION: using custom renumber hook */

FILE_DESCRIPTION(
/* description */ ('STEP AP242 Edition 2',
'CAx-IF Rec.Pracs.---Representation and Presentation of Product Manufa
cturing Information (PMI)---4.0---2014-10-13',
'CAx-IF Rec.Pracs.---3D Tessellated Geometry---0.4---2014-09-14','2;1',
'CAx-IF Rec.Pracs.---User Defined Attributes---1.5---2016-08-15'),
/* implementation_level */ '2;1');

FILE_NAME(
/* name */ '696ae9a21c7efa5c7b6c8108',
/* time_stamp */ '2026-01-17T01:45:06Z',
/* author */ (''),
/* organization */ (''),
/* preprocessor_version */ 'ST-DEVELOPER v20',
/* originating_system */ 'ONSHAPE BY PTC INC, 1.209',
/* authorisation */ '  ');

FILE_SCHEMA (('AP242_MANAGED_MODEL_BASED_3D_ENGINEERING_MIM_LF { 1 0 10303 442 3 1 4 }'));
ENDSEC;

DATA;
#10=SHAPE_REPRESENTATION_RELATIONSHIP('','',#237,#11);
#11=ADVANCED_BREP_SHAPE_REPRESENTATION('',(#235),#419);
#12=TOROIDAL_SURFACE('',#277,0.01825625,0.00079375);
#13=VERTEX_LOOP('',#101);
#14=CONICAL_SURFACE('',#267,0.0032639,1.02974425867666);
#15=CONICAL_SURFACE('',#271,0.003660775,0.78539816339745);
#16=CONICAL_SURFACE('',#272,0.012303125,0.785398163397444);
#17=CONICAL_SURFACE('',#273,0.017065625,0.785398163397431);
#18=CONICAL_SURFACE('',#274,0.0250825,0.785398163397448);
#19=CONICAL_SURFACE('',#275,0.0220345,0.785398163397453);
#20=CONICAL_SURFACE('',#276,0.014900275,0.785398163397446);
#21=PLANE('',#242);
#22=PLANE('',#243);
#23=PLANE('',#249);
#24=PLANE('',#254);
#25=PLANE('',#259);
#26=PLANE('',#264);
#27=ORIENTED_EDGE('',*,*,#65,.T.);
#28=ORIENTED_EDGE('',*,*,#66,.T.);
#29=ORIENTED_EDGE('',*,*,#66,.F.);
#30=ORIENTED_EDGE('',*,*,#67,.T.);
#31=ORIENTED_EDGE('',*,*,#68,.T.);
#32=ORIENTED_EDGE('',*,*,#69,.T.);
#33=ORIENTED_EDGE('',*,*,#70,.T.);
#34=ORIENTED_EDGE('',*,*,#71,.T.);
#35=ORIENTED_EDGE('',*,*,#70,.F.);
#36=ORIENTED_EDGE('',*,*,#72,.T.);
#37=ORIENTED_EDGE('',*,*,#73,.T.);
#38=ORIENTED_EDGE('',*,*,#74,.T.);
#39=ORIENTED_EDGE('',*,*,#75,.T.);
#40=ORIENTED_EDGE('',*,*,#76,.T.);
#41=ORIENTED_EDGE('',*,*,#75,.F.);
#42=ORIENTED_EDGE('',*,*,#77,.T.);
#43=ORIENTED_EDGE('',*,*,#78,.T.);
#44=ORIENTED_EDGE('',*,*,#79,.T.);
#45=ORIENTED_EDGE('',*,*,#78,.F.);
#46=ORIENTED_EDGE('',*,*,#80,.T.);
#47=ORIENTED_EDGE('',*,*,#81,.T.);
#48=ORIENTED_EDGE('',*,*,#82,.F.);
#49=ORIENTED_EDGE('',*,*,#83,.T.);
#50=ORIENTED_EDGE('',*,*,#82,.T.);
#51=ORIENTED_EDGE('',*,*,#83,.F.);
#52=ORIENTED_EDGE('',*,*,#67,.F.);
#53=ORIENTED_EDGE('',*,*,#69,.F.);
#54=ORIENTED_EDGE('',*,*,#68,.F.);
#55=ORIENTED_EDGE('',*,*,#73,.F.);
#56=ORIENTED_EDGE('',*,*,#71,.F.);
#57=ORIENTED_EDGE('',*,*,#77,.F.);
#58=ORIENTED_EDGE('',*,*,#76,.F.);
#59=ORIENTED_EDGE('',*,*,#80,.F.);
#60=ORIENTED_EDGE('',*,*,#79,.F.);
#61=ORIENTED_EDGE('',*,*,#65,.F.);
#62=ORIENTED_EDGE('',*,*,#81,.F.);
#63=ORIENTED_EDGE('',*,*,#74,.F.);
#64=ORIENTED_EDGE('',*,*,#72,.F.);
#65=EDGE_CURVE('',#84,#84,#104,.F.);
#66=EDGE_CURVE('',#85,#85,#105,.T.);
#67=EDGE_CURVE('',#86,#86,#106,.T.);
#68=EDGE_CURVE('',#87,#87,#107,.F.);
#69=EDGE_CURVE('',#88,#88,#108,.T.);
#70=EDGE_CURVE('',#89,#89,#109,.T.);
#71=EDGE_CURVE('',#90,#90,#110,.F.);
#72=EDGE_CURVE('',#91,#91,#111,.F.);
#73=EDGE_CURVE('',#92,#92,#112,.T.);
#74=EDGE_CURVE('',#93,#93,#113,.T.);
#75=EDGE_CURVE('',#94,#94,#114,.T.);
#76=EDGE_CURVE('',#95,#95,#115,.T.);
#77=EDGE_CURVE('',#96,#96,#116,.F.);
#78=EDGE_CURVE('',#97,#97,#117,.T.);
#79=EDGE_CURVE('',#98,#98,#118,.T.);
#80=EDGE_CURVE('',#99,#99,#119,.F.);
#81=EDGE_CURVE('',#100,#100,#120,.T.);
#82=EDGE_CURVE('',#102,#102,#121,.T.);
#83=EDGE_CURVE('',#103,#103,#122,.F.);
#84=VERTEX_POINT('',#361);
#85=VERTEX_POINT('',#363);
#86=VERTEX_POINT('',#367);
#87=VERTEX_POINT('',#369);
#88=VERTEX_POINT('',#372);
#89=VERTEX_POINT('',#374);
#90=VERTEX_POINT('',#377);
#91=VERTEX_POINT('',#380);
#92=VERTEX_POINT('',#382);
#93=VERTEX_POINT('',#385);
#94=VERTEX_POINT('',#387);
#95=VERTEX_POINT('',#390);
#96=VERTEX_POINT('',#393);
#97=VERTEX_POINT('',#395);
#98=VERTEX_POINT('',#398);
#99=VERTEX_POINT('',#401);
#100=VERTEX_POINT('',#403);
#101=VERTEX_POINT('',#405);
#102=VERTEX_POINT('',#407);
#103=VERTEX_POINT('',#410);
#104=CIRCLE('',#240,0.0145034);
#105=CIRCLE('',#241,0.0145034);
#106=CIRCLE('',#244,0.003660775);
#107=CIRCLE('',#245,0.012303125);
#108=CIRCLE('',#247,0.0127);
#109=CIRCLE('',#248,0.0127);
#110=CIRCLE('',#250,0.017065625);
#111=CIRCLE('',#252,0.0174625);
#112=CIRCLE('',#253,0.0174625);
#113=CIRCLE('',#255,0.01825625);
#114=CIRCLE('',#256,0.0250825);
#115=CIRCLE('',#258,0.0250825);
#116=CIRCLE('',#260,0.024685625);
#117=CIRCLE('',#261,0.0220345);
#118=CIRCLE('',#263,0.0220345);
#119=CIRCLE('',#265,0.021637625);
#120=CIRCLE('',#266,0.014900275);
#121=CIRCLE('',#268,0.0032639);
#122=CIRCLE('',#270,0.0032639);
#123=EDGE_LOOP('',(#27));
#124=EDGE_LOOP('',(#28));
#125=EDGE_LOOP('',(#29));
#126=EDGE_LOOP('',(#30));
#127=EDGE_LOOP('',(#31));
#128=EDGE_LOOP('',(#32));
#129=EDGE_LOOP('',(#33));
#130=EDGE_LOOP('',(#34));
#131=EDGE_LOOP('',(#35));
#132=EDGE_LOOP('',(#36));
#133=EDGE_LOOP('',(#37));
#134=EDGE_LOOP('',(#38));
#135=EDGE_LOOP('',(#39));
#136=EDGE_LOOP('',(#40));
#137=EDGE_LOOP('',(#41));
#138=EDGE_LOOP('',(#42));
#139=EDGE_LOOP('',(#43));
#140=EDGE_LOOP('',(#44));
#141=EDGE_LOOP('',(#45));
#142=EDGE_LOOP('',(#46));
#143=EDGE_LOOP('',(#47));
#144=EDGE_LOOP('',(#48));
#145=EDGE_LOOP('',(#49));
#146=EDGE_LOOP('',(#50));
#147=EDGE_LOOP('',(#51));
#148=EDGE_LOOP('',(#52));
#149=EDGE_LOOP('',(#53));
#150=EDGE_LOOP('',(#54));
#151=EDGE_LOOP('',(#55));
#152=EDGE_LOOP('',(#56));
#153=EDGE_LOOP('',(#57));
#154=EDGE_LOOP('',(#58));
#155=EDGE_LOOP('',(#59));
#156=EDGE_LOOP('',(#60));
#157=EDGE_LOOP('',(#61));
#158=EDGE_LOOP('',(#62));
#159=EDGE_LOOP('',(#63));
#160=EDGE_LOOP('',(#64));
#161=FACE_BOUND('',#123,.T.);
#162=FACE_BOUND('',#124,.T.);
#163=FACE_BOUND('',#125,.T.);
#164=FACE_BOUND('',#126,.T.);
#165=FACE_BOUND('',#127,.T.);
#166=FACE_BOUND('',#128,.T.);
#167=FACE_BOUND('',#129,.T.);
#168=FACE_BOUND('',#130,.T.);
#169=FACE_BOUND('',#131,.T.);
#170=FACE_BOUND('',#132,.T.);
#171=FACE_BOUND('',#133,.T.);
#172=FACE_BOUND('',#134,.T.);
#173=FACE_BOUND('',#135,.T.);
#174=FACE_BOUND('',#136,.T.);
#175=FACE_BOUND('',#137,.T.);
#176=FACE_BOUND('',#138,.T.);
#177=FACE_BOUND('',#139,.T.);
#178=FACE_BOUND('',#140,.T.);
#179=FACE_BOUND('',#141,.T.);
#180=FACE_BOUND('',#142,.T.);
#181=FACE_BOUND('',#143,.T.);
#182=FACE_BOUND('',#13,.T.);
#183=FACE_BOUND('',#144,.T.);
#184=FACE_BOUND('',#145,.T.);
#185=FACE_BOUND('',#146,.T.);
#186=FACE_BOUND('',#147,.T.);
#187=FACE_BOUND('',#148,.T.);
#188=FACE_BOUND('',#149,.T.);
#189=FACE_BOUND('',#150,.T.);
#190=FACE_BOUND('',#151,.T.);
#191=FACE_BOUND('',#152,.T.);
#192=FACE_BOUND('',#153,.T.);
#193=FACE_BOUND('',#154,.T.);
#194=FACE_BOUND('',#155,.T.);
#195=FACE_BOUND('',#156,.T.);
#196=FACE_BOUND('',#157,.T.);
#197=FACE_BOUND('',#158,.T.);
#198=FACE_BOUND('',#159,.T.);
#199=FACE_BOUND('',#160,.T.);
#200=CYLINDRICAL_SURFACE('',#239,0.0145034);
#201=CYLINDRICAL_SURFACE('',#246,0.0127);
#202=CYLINDRICAL_SURFACE('',#251,0.0174625);
#203=CYLINDRICAL_SURFACE('',#257,0.0250825);
#204=CYLINDRICAL_SURFACE('',#262,0.0220345);
#205=CYLINDRICAL_SURFACE('',#269,0.0032639);
#206=ADVANCED_FACE('',(#161,#162),#200,.F.);
#207=ADVANCED_FACE('',(#163),#21,.F.);
#208=ADVANCED_FACE('',(#164,#165),#22,.F.);
#209=ADVANCED_FACE('',(#166,#167),#201,.T.);
#210=ADVANCED_FACE('',(#168,#169),#23,.F.);
#211=ADVANCED_FACE('',(#170,#171),#202,.T.);
#212=ADVANCED_FACE('',(#172,#173),#24,.F.);
#213=ADVANCED_FACE('',(#174,#175),#203,.T.);
#214=ADVANCED_FACE('',(#176,#177),#25,.F.);
#215=ADVANCED_FACE('',(#178,#179),#204,.T.);
#216=ADVANCED_FACE('',(#180,#181),#26,.F.);
#217=ADVANCED_FACE('',(#182,#183),#14,.F.);
#218=ADVANCED_FACE('',(#184,#185),#205,.F.);
#219=ADVANCED_FACE('',(#186,#187),#15,.F.);
#220=ADVANCED_FACE('',(#188,#189),#16,.T.);
#221=ADVANCED_FACE('',(#190,#191),#17,.T.);
#222=ADVANCED_FACE('',(#192,#193),#18,.T.);
#223=ADVANCED_FACE('',(#194,#195),#19,.T.);
#224=ADVANCED_FACE('',(#196,#197),#20,.F.);
#225=ADVANCED_FACE('',(#198,#199),#12,.F.);
#226=CLOSED_SHELL('',(#206,#207,#208,#209,#210,#211,#212,#213,#214,#215,
#216,#217,#218,#219,#220,#221,#222,#223,#224,#225));
#227=STYLED_ITEM('',(#228),#235);
#228=PRESENTATION_STYLE_ASSIGNMENT((#229));
#229=SURFACE_STYLE_USAGE(.BOTH.,#230);
#230=SURFACE_SIDE_STYLE('',(#231));
#231=SURFACE_STYLE_FILL_AREA(#232);
#232=FILL_AREA_STYLE('',(#233));
#233=FILL_AREA_STYLE_COLOUR('',#234);
#234=COLOUR_RGB('',0.529411764705882,0.568627450980392,0.6);
#235=MANIFOLD_SOLID_BREP('54FFCEPTS',#226);
#236=SHAPE_DEFINITION_REPRESENTATION(#424,#237);
#237=SHAPE_REPRESENTATION('54FFCEPTS',(#238),#419);
#238=AXIS2_PLACEMENT_3D('',#358,#278,#279);
#239=AXIS2_PLACEMENT_3D('',#359,#280,#281);
#240=AXIS2_PLACEMENT_3D('',#360,#282,#283);
#241=AXIS2_PLACEMENT_3D('',#362,#284,#285);
#242=AXIS2_PLACEMENT_3D('',#364,#286,#287);
#243=AXIS2_PLACEMENT_3D('',#365,#288,#289);
#244=AXIS2_PLACEMENT_3D('',#366,#290,#291);
#245=AXIS2_PLACEMENT_3D('',#368,#292,#293);
#246=AXIS2_PLACEMENT_3D('',#370,#294,#295);
#247=AXIS2_PLACEMENT_3D('',#371,#296,#297);
#248=AXIS2_PLACEMENT_3D('',#373,#298,#299);
#249=AXIS2_PLACEMENT_3D('',#375,#300,#301);
#250=AXIS2_PLACEMENT_3D('',#376,#302,#303);
#251=AXIS2_PLACEMENT_3D('',#378,#304,#305);
#252=AXIS2_PLACEMENT_3D('',#379,#306,#307);
#253=AXIS2_PLACEMENT_3D('',#381,#308,#309);
#254=AXIS2_PLACEMENT_3D('',#383,#310,#311);
#255=AXIS2_PLACEMENT_3D('',#384,#312,#313);
#256=AXIS2_PLACEMENT_3D('',#386,#314,#315);
#257=AXIS2_PLACEMENT_3D('',#388,#316,#317);
#258=AXIS2_PLACEMENT_3D('',#389,#318,#319);
#259=AXIS2_PLACEMENT_3D('',#391,#320,#321);
#260=AXIS2_PLACEMENT_3D('',#392,#322,#323);
#261=AXIS2_PLACEMENT_3D('',#394,#324,#325);
#262=AXIS2_PLACEMENT_3D('',#396,#326,#327);
#263=AXIS2_PLACEMENT_3D('',#397,#328,#329);
#264=AXIS2_PLACEMENT_3D('',#399,#330,#331);
#265=AXIS2_PLACEMENT_3D('',#400,#332,#333);
#266=AXIS2_PLACEMENT_3D('',#402,#334,#335);
#267=AXIS2_PLACEMENT_3D('',#404,#336,#337);
#268=AXIS2_PLACEMENT_3D('',#406,#338,#339);
#269=AXIS2_PLACEMENT_3D('',#408,#340,#341);
#270=AXIS2_PLACEMENT_3D('',#409,#342,#343);
#271=AXIS2_PLACEMENT_3D('',#411,#344,#345);
#272=AXIS2_PLACEMENT_3D('',#412,#346,#347);
#273=AXIS2_PLACEMENT_3D('',#413,#348,#349);
#274=AXIS2_PLACEMENT_3D('',#414,#350,#351);
#275=AXIS2_PLACEMENT_3D('',#415,#352,#353);
#276=AXIS2_PLACEMENT_3D('',#416,#354,#355);
#277=AXIS2_PLACEMENT_3D('',#417,#356,#357);
#278=DIRECTION('',(0.,0.,1.));
#279=DIRECTION('',(1.,0.,0.));
#280=DIRECTION('',(0.,1.,0.));
#281=DIRECTION('',(0.,0.,1.));
#282=DIRECTION('',(0.,1.,0.));
#283=DIRECTION('',(0.,0.,1.));
#284=DIRECTION('',(0.,1.,0.));
#285=DIRECTION('',(0.,0.,1.));
#286=DIRECTION('',(0.,1.,0.));
#287=DIRECTION('',(0.,0.,1.));
#288=DIRECTION('',(0.,-1.,0.));
#289=DIRECTION('',(0.,0.,-1.));
#290=DIRECTION('',(0.,-1.,0.));
#291=DIRECTION('',(0.,0.,-1.));
#292=DIRECTION('',(0.,-1.,0.));
#293=DIRECTION('',(0.,0.,-1.));
#294=DIRECTION('',(0.,1.,0.));
#295=DIRECTION('',(0.,0.,1.));
#296=DIRECTION('',(0.,-1.,0.));
#297=DIRECTION('',(0.,0.,-1.));
#298=DIRECTION('',(0.,1.,0.));
#299=DIRECTION('',(0.,0.,1.));
#300=DIRECTION('',(0.,-1.,0.));
#301=DIRECTION('',(0.,0.,-1.));
#302=DIRECTION('',(0.,-1.,0.));
#303=DIRECTION('',(0.,0.,-1.));
#304=DIRECTION('',(0.,1.,0.));
#305=DIRECTION('',(0.,0.,1.));
#306=DIRECTION('',(0.,-1.,0.));
#307=DIRECTION('',(0.,0.,-1.));
#308=DIRECTION('',(0.,-1.,0.));
#309=DIRECTION('',(0.,0.,-1.));
#310=DIRECTION('',(0.,-1.,0.));
#311=DIRECTION('',(0.,0.,-1.));
#312=DIRECTION('',(0.,-1.,0.));
#313=DIRECTION('',(0.,0.,-1.));
#314=DIRECTION('',(0.,1.,0.));
#315=DIRECTION('',(0.,0.,1.));
#316=DIRECTION('',(0.,1.,0.));
#317=DIRECTION('',(0.,0.,1.));
#318=DIRECTION('',(0.,1.,0.));
#319=DIRECTION('',(0.,0.,1.));
#320=DIRECTION('',(0.,1.,0.));
#321=DIRECTION('',(0.,0.,1.));
#322=DIRECTION('',(0.,1.,0.));
#323=DIRECTION('',(0.,0.,1.));
#324=DIRECTION('',(0.,1.,0.));
#325=DIRECTION('',(0.,0.,1.));
#326=DIRECTION('',(0.,1.,0.));
#327=DIRECTION('',(0.,0.,1.));
#328=DIRECTION('',(0.,1.,0.));
#329=DIRECTION('',(0.,0.,1.));
#330=DIRECTION('',(0.,1.,0.));
#331=DIRECTION('',(0.,0.,1.));
#332=DIRECTION('',(0.,1.,0.));
#333=DIRECTION('',(0.,0.,1.));
#334=DIRECTION('',(0.,1.,0.));
#335=DIRECTION('',(0.,0.,1.));
#336=DIRECTION('',(0.,1.,0.));
#337=DIRECTION('',(0.,0.,1.));
#338=DIRECTION('',(0.,-1.,0.));
#339=DIRECTION('',(0.,0.,-1.));
#340=DIRECTION('',(0.,-1.,0.));
#341=DIRECTION('',(0.,0.,-1.));
#342=DIRECTION('',(0.,-1.,0.));
#343=DIRECTION('',(0.,0.,-1.));
#344=DIRECTION('',(0.,1.,0.));
#345=DIRECTION('',(0.,0.,1.));
#346=DIRECTION('',(0.,-1.,0.));
#347=DIRECTION('',(0.,0.,-1.));
#348=DIRECTION('',(0.,-1.,0.));
#349=DIRECTION('',(0.,0.,-1.));
#350=DIRECTION('',(0.,1.,0.));
#351=DIRECTION('',(0.,0.,1.));
#352=DIRECTION('',(0.,1.,0.));
#353=DIRECTION('',(0.,0.,1.));
#354=DIRECTION('',(0.,-1.,0.));
#355=DIRECTION('',(0.,0.,-1.));
#356=DIRECTION('',(0.,-1.,0.));
#357=DIRECTION('',(0.,0.,-1.));
#358=CARTESIAN_POINT('',(0.,0.,0.));
#359=CARTESIAN_POINT('',(0.,0.04699,0.));
#360=CARTESIAN_POINT('',(0.,0.000396875,0.));
#361=CARTESIAN_POINT('',(0.,0.000396875,0.0145034));
#362=CARTESIAN_POINT('',(0.,0.0381,0.));
#363=CARTESIAN_POINT('',(0.,0.0381,0.0145034));
#364=CARTESIAN_POINT('',(0.,0.0381,0.0072517));
#365=CARTESIAN_POINT('',(0.,0.05842,0.00762));
#366=CARTESIAN_POINT('',(-1.02259770526784E-35,0.05842,-1.08830787870789E-19));
#367=CARTESIAN_POINT('',(-1.02259770526784E-35,0.05842,-0.003660775));
#368=CARTESIAN_POINT('',(0.,0.05842,0.));
#369=CARTESIAN_POINT('',(0.,0.05842,-0.012303125));
#370=CARTESIAN_POINT('',(0.,0.04699,0.));
#371=CARTESIAN_POINT('',(0.,0.058023125,0.));
#372=CARTESIAN_POINT('',(0.,0.058023125,-0.0127));
#373=CARTESIAN_POINT('',(0.,0.04826,0.));
#374=CARTESIAN_POINT('',(0.,0.04826,0.0127));
#375=CARTESIAN_POINT('',(0.,0.04826,0.01508125));
#376=CARTESIAN_POINT('',(0.,0.04826,0.));
#377=CARTESIAN_POINT('',(0.,0.04826,-0.017065625));
#378=CARTESIAN_POINT('',(0.,0.04699,0.));
#379=CARTESIAN_POINT('',(0.,0.00739775,0.));
#380=CARTESIAN_POINT('',(0.,0.00739775,-0.0174625));
#381=CARTESIAN_POINT('',(0.,0.047863125,0.));
#382=CARTESIAN_POINT('',(0.,0.047863125,-0.0174625));
#383=CARTESIAN_POINT('',(0.,0.006604,0.0212725));
#384=CARTESIAN_POINT('',(0.,0.006604,0.));
#385=CARTESIAN_POINT('',(0.,0.006604,-0.01825625));
#386=CARTESIAN_POINT('',(0.,0.006604,0.));
#387=CARTESIAN_POINT('',(0.,0.006604,0.0250825));
#388=CARTESIAN_POINT('',(0.,0.04699,0.));
#389=CARTESIAN_POINT('',(0.,0.003698875,0.));
#390=CARTESIAN_POINT('',(0.,0.003698875,0.0250825));
#391=CARTESIAN_POINT('',(0.,0.003302,0.0235585));
#392=CARTESIAN_POINT('',(0.,0.003302,0.));
#393=CARTESIAN_POINT('',(0.,0.003302,0.024685625));
#394=CARTESIAN_POINT('',(0.,0.003302,0.));
#395=CARTESIAN_POINT('',(0.,0.003302,0.0220345));
#396=CARTESIAN_POINT('',(0.,0.04699,0.));
#397=CARTESIAN_POINT('',(0.,0.000396875,0.));
#398=CARTESIAN_POINT('',(0.,0.000396875,0.0220345));
#399=CARTESIAN_POINT('',(0.,4.33680868994202E-19,0.01826895));
#400=CARTESIAN_POINT('',(0.,4.33680868994202E-19,0.));
#401=CARTESIAN_POINT('',(0.,4.33680868994202E-19,0.021637625));
#402=CARTESIAN_POINT('',(0.,4.33680868994202E-19,0.));
#403=CARTESIAN_POINT('',(0.,4.33680868994202E-19,0.014900275));
#404=CARTESIAN_POINT('',(-1.02259770526784E-35,0.042545,-1.08830787870789E-19));
#405=CARTESIAN_POINT('',(0.,0.040583851025556,-1.08830787870789E-19));
#406=CARTESIAN_POINT('',(-1.02259770526784E-35,0.042545,-1.08830787870789E-19));
#407=CARTESIAN_POINT('',(-1.02259770526784E-35,0.042545,-0.0032639));
#408=CARTESIAN_POINT('',(-1.02259770526784E-35,0.05842,-1.08830787870789E-19));
#409=CARTESIAN_POINT('',(-1.02259770526784E-35,0.058023125,-1.08830787870789E-19));
#410=CARTESIAN_POINT('',(-1.02259770526784E-35,0.058023125,-0.0032639));
#411=CARTESIAN_POINT('',(-1.02259770526784E-35,0.05842,-1.08830787870789E-19));
#412=CARTESIAN_POINT('',(0.,0.05842,0.));
#413=CARTESIAN_POINT('',(0.,0.04826,0.));
#414=CARTESIAN_POINT('',(0.,0.003698875,0.));
#415=CARTESIAN_POINT('',(0.,0.000396875,0.));
#416=CARTESIAN_POINT('',(0.,0.,0.));
#417=CARTESIAN_POINT('',(0.,0.00739775,0.));
#418=MECHANICAL_DESIGN_GEOMETRIC_PRESENTATION_REPRESENTATION('',(#227),
#419);
#419=(
GEOMETRIC_REPRESENTATION_CONTEXT(3)
GLOBAL_UNCERTAINTY_ASSIGNED_CONTEXT((#420))
GLOBAL_UNIT_ASSIGNED_CONTEXT((#423,#422,#421))
REPRESENTATION_CONTEXT('54FFCEPTS','TOP_LEVEL_ASSEMBLY_PART')
);
#420=UNCERTAINTY_MEASURE_WITH_UNIT(LENGTH_MEASURE(1.E-8),#423,
'DISTANCE_ACCURACY_VALUE','Maximum Tolerance applied to model');
#421=(
NAMED_UNIT(*)
SI_UNIT($,.STERADIAN.)
SOLID_ANGLE_UNIT()
);
#422=(
NAMED_UNIT(*)
PLANE_ANGLE_UNIT()
SI_UNIT($,.RADIAN.)
);
#423=(
LENGTH_UNIT()
NAMED_UNIT(*)
SI_UNIT($,.METRE.)
);
#424=PRODUCT_DEFINITION_SHAPE('','',#425);
#425=PRODUCT_DEFINITION('','',#427,#426);
#426=PRODUCT_DEFINITION_CONTEXT('',#433,'design');
#427=PRODUCT_DEFINITION_FORMATION_WITH_SPECIFIED_SOURCE('','',#429,
 .NOT_KNOWN.);
#428=PRODUCT_RELATED_PRODUCT_CATEGORY('','',(#429));
#429=PRODUCT('54FFCEPTS','54FFCEPTS','54FFCEPTS',(#431));
#430=PRODUCT_CATEGORY('','');
#431=PRODUCT_CONTEXT('',#433,'mechanical');
#432=APPLICATION_PROTOCOL_DEFINITION('international standard',
'ap242_managed_model_based_3d_engineering',2020,#433);
#433=APPLICATION_CONTEXT('managed model based 3d engineering');
ENDSEC;
END-ISO-10303-21;
